<?xml version="1.0" encoding="UTF-8" standalone="no"?>
<!-- Created with Inkscape (http://www.inkscape.org/) -->
<svg xmlns:dc="http://purl.org/dc/elements/1.1/" xmlns:cc="http://creativecommons.org/ns#" xmlns:rdf="http://www.w3.org/1999/02/22-rdf-syntax-ns#" xmlns:svg="http://www.w3.org/2000/svg" xmlns="http://www.w3.org/2000/svg" xmlns:sodipodi="http://sodipodi.sourceforge.net/DTD/sodipodi-0.dtd" xmlns:inkscape="http://www.inkscape.org/namespaces/inkscape" viewBox="0 0 50 50" version="1.1" id="svg2" inkscape:version="0.48.2 r9819" sodipodi:docname="programmer3.svg">
  <defs id="defs50"/>
  <sodipodi:namedview pagecolor="#ffffff" bordercolor="#666666" borderopacity="1" objecttolerance="10" gridtolerance="10" guidetolerance="10" inkscape:pageopacity="0" inkscape:pageshadow="2" inkscape:window-width="1579" inkscape:window-height="792" id="namedview48" showgrid="false" inkscape:zoom="5.1164063" inkscape:cx="36.535319" inkscape:cy="29.620354" inkscape:window-x="148" inkscape:window-y="23" inkscape:window-maximized="0" inkscape:current-layer="svg2"/>
  <title id="title4">rogrammer</title>
  <g id="g3959" transform="matrix(0.48242082,0,0,0.48242082,10.742217,15.595995)">
    <rect transform="matrix(0.71020394,-0.703996,0.703996,0.71020394,0,0)" rx="6.9538364" ry="5.4530807" y="2.1752348" x="-26.378284" height="65.429276" width="65.429276" id="rect3957" style="fill:#ffff00;fill-opacity:1;fill-rule:nonzero;stroke:#000000;stroke-width:3.88803983;stroke-miterlimit:4;stroke-dasharray:none"/>
    <path sodipodi:nodetypes="cssczccc" inkscape:connector-curvature="0" id="path10" d="m 19.110922,45.163663 c 0,0 -2.03789,-0.341314 -2.61019,0.322811 -0.675337,0.783694 -1.753396,1.762527 0.07824,3.102609 1.831635,1.340082 6.903683,-0.703605 6.903683,-0.703605 0,0 3.149335,-1.166223 3.64204,-2.200313 0.492705,-1.03409 0.721846,-1.645112 -0.360241,-2.592814 -1.081997,-0.947802 -5.039935,1.197135 -4.721536,0.996338 z" style="color:#000000;fill:#000000"/>
    <path sodipodi:nodetypes="ccccccc" inkscape:connector-curvature="0" id="path12" d="m 17.24123,27.290462 0.475907,0.579963 -2.031488,3.762043 L 6.5819477,29.337689 6.3578751,28.36992 17.24092,27.290462 z" style="fill:#000000;enable-background:new"/>
    <path inkscape:connector-curvature="0" id="path16" d="M 1.3265715,8.462615 2.7861676,7.8037405 9.6495497,18.698854 7.6774549,25.645128 5.9990593,25.425503 1.3263715,8.4624147 z" style="fill:#000000;stroke:#000000;stroke-width:0.29042318;enable-background:new"/>
    <path sodipodi:nodetypes="cccccccccc" inkscape:connector-curvature="0" id="path18" d="m 45.569156,17.676242 c 0.584038,0.731181 0.401999,5.842441 -0.292039,9.505058 -0.555259,2.930534 -4.638988,6.972412 -8.162979,9.826534 -3.523991,2.854021 -5.580385,1.067979 -5.580385,1.067979 l -5.755537,-5.387537 c 0.04078,0.122344 1.763234,0.289732 2.245011,-0.684629 -2.315479,-3.079075 4.333714,-4.127553 6.490838,-3.666958 3.148862,-0.569948 -0.604565,-4.73422 2.148014,-7.589705 l 8.907077,-3.070942 z" style="fill:#0b1728;enable-background:new"/>
    <path sodipodi:nodetypes="cccscczzccccccc" inkscape:connector-curvature="0" id="path20" d="m 36.750279,3.0425001 c -2.865293,0.070104 -4.882787,1.8172878 -4.791088,5.1211743 l -0.01663,2.4757796 c -0.496223,1.083305 -0.919422,1.539941 -0.919422,2.171375 0,0.60139 0.139724,0.725091 1.005521,0.942412 0,0 -0.453737,4.01714 2.296911,3.886576 2.457474,-1.400986 3.744079,-1.14995 4.52079,-1.771772 0.77671,-0.621822 0.0352,0.927335 0.230419,1.721503 0.195219,0.794167 1.800476,1.179804 1.800476,1.179804 l 2.551015,-1.816679 -1.957395,-4.043981 c 0.683059,-0.307955 1.661696,-0.958518 2.074395,-2.280873 C 44.2117,8.4920601 44.10221,6.1879523 41.436477,4.3194888 40.603459,3.7355251 38.052386,3.0107532 36.749889,3.0426003 z" style="fill:#f6e6cc;stroke:#000000;stroke-width:0.97100002;stroke-linecap:round;stroke-linejoin:round;stroke-miterlimit:4;stroke-dasharray:none;enable-background:new"/>
    <path inkscape:connector-curvature="0" id="path24" style="fill:#000c00;enable-background:new" d="m 38.197175,8.7630594 -5.142186,0.1544284 -0.961318,0.046068 0.525999,3.1971282 0.281139,-0.05408 -0.1451,-2.5976415 5.123587,-0.3890755 c 1.108897,-0.080118 0.916478,0.8293266 0.997967,1.460761 0.09394,0.728377 -1.026197,0.999278 -0.462538,0.908243 0.563668,-0.09114 1.125197,-0.541801 0.843397,-1.9073212 C 39.117203,8.8988602 38.640124,8.7438309 38.197025,8.764161 z"/>
    <path inkscape:connector-curvature="0" id="path26" d="M 3.0794669,7.9618744 8.0440539,8.9854883 12.570742,24.193982 7.7521547,25.363812 3.0794669,7.9620747 z" style="fill:#ffffff;stroke:#000000;stroke-width:0.8712697;stroke-linecap:round;stroke-linejoin:round;enable-background:new"/>
    <path sodipodi:nodetypes="cccccc" inkscape:connector-curvature="0" id="path28" d="m 17.979678,26.887446 -4.380388,-1.462363 -6.8628825,2.928236 8.9540765,2.438869 2.289094,-3.904742 z" style="fill:#4d4d4d;stroke:#000000;stroke-width:0.27280325;enable-background:new"/>
    <path sodipodi:nodetypes="zzzzccczsccz" inkscape:connector-curvature="0" id="path30" d="m 28.313779,24.077452 c -1.768029,0.564128 -2.362978,1.048589 -3.547791,1.181982 -1.184812,0.133393 -3.13255,-0.156633 -4.074587,-0.444396 -0.942037,-0.287764 -1.630268,-0.587348 -2.547146,-0.904564 -0.916878,-0.317217 -3.07144,-0.367185 -3.764231,1.952616 0,0 0.28674,0.633174 2.274245,0.635177 -1.007293,0.693694 0.107987,1.710019 1.200145,0.749125 0.21058,-0.391679 0.830738,-1.107749 2.214495,-0.857049 1.383757,0.2507 6.83549,1.581548 7.388537,1.564212 5.171292,-0.162098 10.186707,-0.159423 8.646623,-4.10093 -0.304555,-3.450668 -3.199757,-2.155301 -3.854267,-1.4541 -1.496566,-0.07472 -2.167994,1.113799 -3.936023,1.677927 z" style="fill:#f6e6cc;stroke:#000000;stroke-width:1;stroke-linecap:round;stroke-linejoin:round;stroke-miterlimit:4;stroke-dasharray:none;enable-background:new"/>
    <path sodipodi:nodetypes="ccccccccc" inkscape:connector-curvature="0" id="path22" d="m 42.898589,16.860517 c 0,0 2.039594,-1.268296 3.061691,1.071364 1.022098,2.339761 -1.467008,4.679621 -3.949241,5.849351 -2.482294,1.169931 -6.315506,3.458973 -6.315506,3.458973 0,0 -2.637435,1.122722 -3.805592,0.83039 -1.168097,-0.292533 -1.164672,-3.800097 -1.310671,-5.26236 -0.14603,-1.462263 3.164017,-1.900269 4.624413,-2.339018 1.460196,-0.438749 6.081083,-3.021608 5.642784,-2.729176 z" style="fill:#162d50;stroke:none;enable-background:new"/>
    <path inkscape:connector-curvature="0" id="path32" d="m 35.417182,12.368392 c -0.06119,0.186375 -0.301289,0.652164 -1.280296,1.362315 -0.549739,0.398789 -1.203997,0.455373 -1.772796,0.394583 v 0.48692 c 0.857158,0.21642 1.673296,-0.05208 2.111295,-0.376056 0.613418,-0.454772 0.889978,-1.62931 0.941787,-1.867762 z" style="fill:#001400;enable-background:new"/>
    <path inkscape:connector-curvature="0" id="path34" d="m 32.257191,10.265281 1.532296,0.621019 c 0,0 -1.057998,-2.4479208 -1.532296,-0.621019 z" style="color:#000000;fill:#000000"/>
    <path sodipodi:nodetypes="ccccccccc" inkscape:connector-curvature="0" id="path36" d="m 27.901026,31.851232 -8.871977,2.185853 c -2.349893,0.604795 -2.463914,1.923022 0.541978,5.971109 3.005692,4.048288 1.298419,4.891551 2.063917,5.464398 2.254294,1.686795 6.092959,-2.633133 6.092959,-2.633133 L 24.83621,38.422927 c 0,0 8.623278,0.186876 9.452375,-0.02103 0.829158,-0.207506 -4.006613,-4.681933 -4.628512,-4.889741 z" style="color:#000000;fill:#002255;stroke:none"/>
    <rect id="rect38" x="48.135792" y="7.5115552" width="3.2599757" height="13.145103" transform="matrix(0.9912441,0.13204219,-0.13187778,0.99126598,0,0)" style="color:#000000;fill:#000000;stroke:#000000;stroke-width:0.34711632" ry="1.8663121"/>
    <path inkscape:connector-curvature="0" id="path42" d="m 33.548718,30.077646 c -2.705293,0 -4.878987,2.186033 -4.878987,4.895541 v 2.088889 c 0,2.709307 2.173794,4.895541 4.878987,4.895541 H 44.12369 c 2.705293,0 4.878988,-2.186234 4.878988,-4.895541 v -2.088889 c 0,-2.709307 -2.173795,-4.895541 -4.878988,-4.895541 H 33.548718 z M 32.8867,32.984045 h 12.070968 c 1.732496,0 3.128692,1.398268 3.128692,3.133434 v 1.335075 c 0,0.553719 -0.13992,1.066076 -0.389979,1.516743 -0.17893,-0.673596 -1.240397,-1.194467 -2.539293,-1.198873 L 32.65112,37.733364 c -1.263197,0 -2.315294,0.472198 -2.548393,1.117152 -0.21017,-0.422525 -0.335539,-0.89262 -0.335539,-1.398668 v -1.335175 c 0,-1.735066 1.387196,-3.133334 3.119692,-3.133334 z" style="color:#000000;fill:#000000"/>
    <path sodipodi:nodetypes="ccccccccccccccc" inkscape:connector-curvature="0" id="path44" d="m 31.535566,3.0473467 c 0,0 -0.609941,1.9073323 0.524866,1.9845465 1.037072,0.6644651 2.003258,0.6195292 2.003258,0.6195292 0,0 0.942421,-0.1631185 1.662757,-0.3696399 -0.01262,0.6241397 0.310528,1.5501616 0.310528,1.5501616 0,0 -0.160816,0.7621371 0.529578,1.3517993 -0.189139,0.5404994 1.512996,0.077114 1.512996,0.077114 0,0 1.361697,-0.4247282 1.437397,0.9267707 0.07566,1.3517989 0.710871,3.4560959 0.710871,3.4560959 -0.827975,2.105381 2.790397,3.891762 2.572194,1.274284 0,0 0.877785,-2.258725 1.218284,-3.803509 C 44.358733,8.5699146 44.283073,5.5577596 42.959097,4.4763602 41.6352,3.3950609 41.375216,0.95517044 35.379578,1.6321521 33.488183,2.2113086 31.875925,4.2446174 31.535526,3.047547 z" style="color:#000000;fill:#000000"/>
  </g>
  <metadata id="metadata46">
    <rdf:RDF>
      <cc:Work>
        <dc:format>image/svg+xml</dc:format>
        <dc:type rdf:resource="http://purl.org/dc/dcmitype/StillImage"/>
        <cc:license rdf:resource="http://creativecommons.org/licenses/publicdomain/"/>
        <dc:publisher>
          <cc:Agent rdf:about="http://openclipart.org/">
            <dc:title/>
          </cc:Agent>
        </dc:publisher>
        <dc:title>rogrammer</dc:title>
        <dc:date>December 23, 2014</dc:date>
        <dc:description/>
        <dc:source/>
        <dc:creator>
          <cc:Agent>
            <dc:title>Thenanobel</dc:title>
          </cc:Agent>
        </dc:creator>
        <dc:subject>
          <rdf:Bag/>
        </dc:subject>
      </cc:Work>
      <cc:License rdf:about="http://creativecommons.org/licenses/publicdomain/">
        <cc:permits rdf:resource="http://creativecommons.org/ns#Reproduction"/>
        <cc:permits rdf:resource="http://creativecommons.org/ns#Distribution"/>
        <cc:permits rdf:resource="http://creativecommons.org/ns#DerivativeWorks"/>
      </cc:License>
    </rdf:RDF>
  </metadata>
</svg>
